<svg width="96" height="23" viewBox="0 0 96 23" fill="none" xmlns="http://www.w3.org/2000/svg">
<path d="M95.4066 5.61597L88.9506 17.424C88.8386 17.616 88.6866 17.784 88.4946 17.928C88.3186 18.056 88.1186 18.12 87.8946 18.12H86.8626C86.4306 18.12 86.0706 17.888 85.7826 17.424L79.3746 5.61597H82.4226L87.3906 14.76L92.3346 5.61597H95.4066Z" fill="#6366F1"/>
<path d="M73.2253 15.648H80.0413V18.12H73.2493C72.3053 18.12 71.4253 17.976 70.6093 17.688C69.7933 17.384 69.0813 16.96 68.4733 16.416C67.8653 15.856 67.3853 15.192 67.0333 14.424C66.6973 13.64 66.5293 12.776 66.5293 11.832C66.5293 10.872 66.7053 10.008 67.0573 9.23997C67.4253 8.47197 67.9133 7.82397 68.5213 7.29597C69.1453 6.75197 69.8573 6.33597 70.6573 6.04797C71.4733 5.75997 72.3373 5.61597 73.2493 5.61597H76.5613C77.8093 5.61597 78.8093 5.94397 79.5613 6.59997C80.3293 7.23997 80.7133 8.20797 80.7133 9.50397C80.7133 10.592 80.3933 11.408 79.7533 11.952C79.4333 12.224 79.0253 12.48 78.5293 12.72C78.0333 12.944 77.4333 13.056 76.7293 13.056H69.6493C69.8733 13.872 70.3133 14.512 70.9693 14.976C71.6253 15.424 72.3773 15.648 73.2253 15.648ZM69.5773 10.896H76.1773C76.6733 10.896 77.0813 10.808 77.4013 10.632C77.7213 10.456 77.8813 10.088 77.8813 9.52797C77.8813 8.48797 77.2973 7.96797 76.1293 7.96797H73.2253C72.2973 7.96797 71.4973 8.23197 70.8253 8.75997C70.1693 9.27197 69.7533 9.98397 69.5773 10.896Z" fill="#6366F1"/>
<path d="M66.8 0V12.168C66.8 14.184 66.248 15.68 65.144 16.656C64.056 17.632 62.528 18.12 60.56 18.12H58.328C57.32 18.12 56.4 17.968 55.568 17.664C54.752 17.344 54.048 16.904 53.456 16.344C52.88 15.768 52.424 15.08 52.088 14.28C51.768 13.464 51.608 12.568 51.608 11.592C51.608 10.536 51.776 9.624 52.112 8.856C52.448 8.088 52.912 7.456 53.504 6.96C54.112 6.448 54.832 6.072 55.664 5.832C56.496 5.592 57.408 5.472 58.4 5.472C58.464 5.472 58.6 5.48 58.808 5.496C59.016 5.496 59.248 5.504 59.504 5.52C59.776 5.536 60.048 5.56 60.32 5.592C60.592 5.608 60.824 5.624 61.016 5.64C61.352 5.672 61.792 5.752 62.336 5.88C62.88 6.008 63.368 6.128 63.8 6.24V0H66.8ZM63.8 8.952C63.56 8.888 63.296 8.824 63.008 8.76C62.72 8.68 62.44 8.624 62.168 8.592C61.992 8.56 61.736 8.528 61.4 8.496C61.064 8.448 60.72 8.408 60.368 8.376C60.016 8.344 59.688 8.312 59.384 8.28C59.08 8.248 58.864 8.232 58.736 8.232C55.984 8.232 54.608 9.384 54.608 11.688C54.608 12.232 54.696 12.736 54.872 13.2C55.064 13.648 55.32 14.04 55.64 14.376C55.976 14.696 56.368 14.944 56.816 15.12C57.28 15.296 57.784 15.384 58.328 15.384H60.512C61.584 15.384 62.4 15.112 62.96 14.568C63.52 14.024 63.8 13.224 63.8 12.168V8.952Z" fill="#6366F1"/>
<path d="M53.8 12.216C53.8 13.192 53.624 14.072 53.272 14.856C52.92 15.624 52.432 16.28 51.808 16.824C51.2 17.368 50.488 17.784 49.672 18.072C48.856 18.36 47.992 18.504 47.08 18.504H45.328C44.384 18.504 43.504 18.36 42.688 18.072C41.872 17.768 41.16 17.344 40.552 16.8C39.944 16.24 39.464 15.576 39.112 14.808C38.776 14.024 38.608 13.16 38.608 12.216C38.608 11.256 38.784 10.392 39.136 9.624C39.504 8.856 39.992 8.208 40.6 7.68C41.224 7.136 41.936 6.72 42.736 6.432C43.552 6.144 44.416 6 45.328 6H47.08C47.992 6 48.856 6.144 49.672 6.432C50.488 6.72 51.2 7.136 51.808 7.68C52.432 8.208 52.92 8.856 53.272 9.624C53.624 10.392 53.8 11.256 53.8 12.216ZM50.8 12.216C50.8 11.688 50.704 11.208 50.512 10.776C50.32 10.344 50.056 9.976 49.72 9.672C49.384 9.368 48.984 9.136 48.52 8.976C48.072 8.816 47.592 8.736 47.08 8.736H45.304C44.792 8.736 44.312 8.824 43.864 9C43.416 9.16 43.024 9.392 42.688 9.696C42.352 9.984 42.08 10.344 41.872 10.776C41.68 11.208 41.584 11.688 41.584 12.216C41.584 12.744 41.68 13.232 41.872 13.68C42.064 14.112 42.328 14.488 42.664 14.808C43 15.112 43.392 15.352 43.84 15.528C44.288 15.688 44.776 15.768 45.304 15.768H47.08C47.608 15.768 48.096 15.688 48.544 15.528C48.992 15.352 49.384 15.112 49.72 14.808C50.056 14.488 50.32 14.112 50.512 13.68C50.704 13.232 50.8 12.744 50.8 12.216Z" fill="#1E293B"/>
<path d="M38.8 11.952V16.824C38.8 17.96 38.656 18.92 38.368 19.704C38.08 20.488 37.656 21.12 37.096 21.6C36.536 22.096 35.84 22.448 35.008 22.656C34.176 22.88 33.216 22.992 32.128 22.992H29.008V20.256H32.176C33.344 20.256 34.232 20.008 34.84 19.512C35.448 19.032 35.768 18.184 35.8 16.968C35.544 17.016 35.248 17.064 34.912 17.112C34.576 17.144 34.24 17.184 33.904 17.232C33.584 17.28 33.28 17.32 32.992 17.352C32.72 17.384 32.512 17.416 32.368 17.448C31.6 17.544 30.912 17.592 30.304 17.592C29.376 17.592 28.504 17.488 27.688 17.28C26.888 17.056 26.184 16.72 25.576 16.272C24.968 15.808 24.488 15.224 24.136 14.52C23.784 13.8 23.608 12.936 23.608 11.928C23.608 10.872 23.8 9.976 24.184 9.24C24.568 8.488 25.08 7.872 25.72 7.392C26.376 6.912 27.128 6.56 27.976 6.336C28.824 6.112 29.712 6 30.64 6H32.944C34.832 6 36.28 6.52 37.288 7.56C38.296 8.6 38.8 10.064 38.8 11.952ZM35.8 11.736C35.8 10.728 35.512 9.984 34.936 9.504C34.376 9.008 33.608 8.76 32.632 8.76H30.448C29.92 8.76 29.424 8.824 28.96 8.952C28.496 9.064 28.088 9.248 27.736 9.504C27.4 9.76 27.128 10.096 26.92 10.512C26.712 10.912 26.608 11.4 26.608 11.976C26.608 14.008 27.976 15.024 30.712 15.024C30.984 15.024 31.272 15.016 31.576 15C31.88 14.968 32.216 14.936 32.584 14.904C32.728 14.888 32.928 14.864 33.184 14.832C33.44 14.8 33.72 14.768 34.024 14.736C34.328 14.688 34.64 14.648 34.96 14.616C35.28 14.568 35.56 14.528 35.8 14.496V11.736Z" fill="#1E293B"/>
<path d="M23.8 11.712C23.8 12.688 23.624 13.568 23.272 14.352C22.92 15.12 22.432 15.776 21.808 16.32C21.2 16.864 20.488 17.28 19.672 17.568C18.856 17.856 17.992 18 17.08 18H15.328C14.384 18 13.504 17.856 12.688 17.568C11.872 17.264 11.16 16.84 10.552 16.296C9.94403 15.736 9.46403 15.072 9.11203 14.304C8.77603 13.52 8.60803 12.656 8.60803 11.712C8.60803 10.752 8.78403 9.88797 9.13603 9.11997C9.50403 8.35197 9.99203 7.70397 10.6 7.17597C11.224 6.63197 11.936 6.21597 12.736 5.92797C13.552 5.63997 14.416 5.49597 15.328 5.49597H17.08C17.992 5.49597 18.856 5.63997 19.672 5.92797C20.488 6.21597 21.2 6.63197 21.808 7.17597C22.432 7.70397 22.92 8.35197 23.272 9.11997C23.624 9.88797 23.8 10.752 23.8 11.712ZM20.8 11.712C20.8 11.184 20.704 10.704 20.512 10.272C20.32 9.83997 20.056 9.47197 19.72 9.16797C19.384 8.86397 18.984 8.63197 18.52 8.47197C18.072 8.31197 17.592 8.23197 17.08 8.23197H15.304C14.792 8.23197 14.312 8.31997 13.864 8.49597C13.416 8.65597 13.024 8.88797 12.688 9.19197C12.352 9.47997 12.08 9.83997 11.872 10.272C11.68 10.704 11.584 11.184 11.584 11.712C11.584 12.24 11.68 12.728 11.872 13.176C12.064 13.608 12.328 13.984 12.664 14.304C13 14.608 13.392 14.848 13.84 15.024C14.288 15.184 14.776 15.264 15.304 15.264H17.08C17.608 15.264 18.096 15.184 18.544 15.024C18.992 14.848 19.384 14.608 19.72 14.304C20.056 13.984 20.32 13.608 20.512 13.176C20.704 12.728 20.8 12.24 20.8 11.712Z" fill="#1E293B"/>
<path d="M11.4645 18H0V1.20001C1.72313 1.20001 3.12 2.59688 3.12 4.32001V15L8.60803 15C9.10803 16 9.60803 17 11.4645 18Z" fill="#1E293B"/>
</svg>
